<svg width="11" height="16" viewBox="0 0 11 16" fill="none" xmlns="http://www.w3.org/2000/svg">
<path d="M5.92746 1.14552V1.64552L6.42746 1.64552C7.0912 1.64553 7.73863 1.8513 8.28059 2.2345C8.82249 2.61765 9.2323 3.15934 9.45363 3.78502C9.47231 3.83794 9.48039 3.89401 9.47741 3.95005C9.47442 4.00609 9.46043 4.06099 9.43622 4.11162C9.41202 4.16225 9.37808 4.20761 9.33634 4.24512C9.29461 4.28264 9.24589 4.31157 9.19298 4.33025C9.14007 4.34894 9.08399 4.35702 9.02795 4.35403C8.97191 4.35104 8.91701 4.33705 8.86638 4.31285C8.76413 4.26396 8.68548 4.17646 8.64775 4.0696L8.64765 4.06934C8.48526 3.61028 8.18454 3.21287 7.7869 2.93182C7.38926 2.65077 6.91427 2.49993 6.42734 2.50005L5.92746 2.50017V3.00005V6.7091V7.2091H6.42746C7.27856 7.2091 8.09479 7.54719 8.6966 8.149C9.29842 8.75082 9.63651 9.56705 9.63651 10.4181C9.63651 11.2692 9.29842 12.0855 8.6966 12.6873C8.09479 13.2891 7.27856 13.6272 6.42746 13.6272H5.92746V14.1272V14.5545H5.07294V14.1272V13.6272L4.57295 13.6272C3.9092 13.6272 3.26177 13.4214 2.71981 13.0382C2.17785 12.655 1.768 12.1132 1.5467 11.4875L1.54688 11.4874L1.54183 11.4743C1.52128 11.421 1.51163 11.3641 1.51344 11.307C1.51526 11.2499 1.52851 11.1938 1.55241 11.1419C1.5763 11.09 1.61037 11.0434 1.65257 11.0049L1.31663 10.6366L1.65258 11.0049C1.69479 10.9664 1.74429 10.9368 1.79815 10.9177C1.85202 10.8987 1.90915 10.8907 1.96618 10.8941C2.0232 10.8975 2.07896 10.9124 2.13016 10.9377C2.18135 10.9631 2.22693 10.9985 2.26422 11.0418C2.3015 11.085 2.32973 11.1354 2.34722 11.1898L2.34949 11.1968L2.35197 11.2038C2.67647 12.1185 3.54801 12.7727 4.57294 12.7727H5.07294V12.2727V8.56362V8.06362H4.57294C3.72185 8.06362 2.90561 7.72552 2.3038 7.12371C1.70199 6.5219 1.36389 5.70566 1.36389 4.85457C1.36389 4.00348 1.70199 3.18725 2.3038 2.58543C2.90561 1.98362 3.72185 1.64552 4.57294 1.64552H5.07294V1.14552V0.718262H5.92746V1.14552ZM5.07294 3.00005V2.50005H4.57294C3.94848 2.50005 3.3496 2.74811 2.90804 3.18967C2.46648 3.63123 2.21842 4.23011 2.21842 4.85457C2.21842 5.47903 2.46648 6.07791 2.90804 6.51947C3.3496 6.96103 3.94848 7.2091 4.57294 7.2091H5.07294V6.7091V3.00005ZM5.92746 12.2727V12.7727H6.42746C7.05192 12.7727 7.6508 12.5246 8.09236 12.083C8.53392 11.6415 8.78199 11.0426 8.78199 10.4181C8.78199 9.79368 8.53392 9.1948 8.09236 8.75324C7.6508 8.31168 7.05192 8.06362 6.42746 8.06362H5.92746V8.56362V12.2727Z" fill="#FAFAFA" stroke="#FAFAFA"/>
</svg>
