<svg width="31" height="34" viewBox="0 0 31 34" fill="none" xmlns="http://www.w3.org/2000/svg">
<path d="M15.9275 15.1455V15.6455L16.4275 15.6455C17.0912 15.6455 17.7386 15.8513 18.2806 16.2345C18.8225 16.6176 19.2323 17.1593 19.4536 17.785C19.4723 17.8379 19.4804 17.894 19.4774 17.95C19.4744 18.0061 19.4604 18.061 19.4362 18.1116C19.412 18.1622 19.3781 18.2076 19.3363 18.2451C19.2946 18.2826 19.2459 18.3116 19.193 18.3303C19.1401 18.3489 19.084 18.357 19.0279 18.354C18.9719 18.351 18.917 18.337 18.8664 18.3128C18.7641 18.264 18.6855 18.1765 18.6477 18.0696L18.6477 18.0693C18.4853 17.6103 18.1845 17.2129 17.7869 16.9318C17.3893 16.6508 16.9143 16.4999 16.4273 16.5L15.9275 16.5002V17V20.7091V21.2091H16.4275C17.2786 21.2091 18.0948 21.5472 18.6966 22.149C19.2984 22.7508 19.6365 23.5671 19.6365 24.4181C19.6365 25.2692 19.2984 26.0855 18.6966 26.6873C18.0948 27.2891 17.2786 27.6272 16.4275 27.6272H15.9275V28.1272V28.5545H15.0729V28.1272V27.6272L14.5729 27.6272C13.9092 27.6272 13.2618 27.4214 12.7198 27.0382C12.1779 26.655 11.768 26.1132 11.5467 25.4875L11.5469 25.4874L11.5418 25.4743C11.5213 25.421 11.5116 25.3641 11.5134 25.307C11.5153 25.2499 11.5285 25.1938 11.5524 25.1419C11.5763 25.09 11.6104 25.0434 11.6526 25.0049L11.3166 24.6366L11.6526 25.0049C11.6948 24.9664 11.7443 24.9368 11.7982 24.9177C11.852 24.8987 11.9092 24.8907 11.9662 24.8941C12.0232 24.8975 12.079 24.9124 12.1302 24.9377C12.1814 24.9631 12.2269 24.9985 12.2642 25.0418C12.3015 25.085 12.3297 25.1354 12.3472 25.1898L12.3495 25.1968L12.352 25.2038C12.6765 26.1185 13.548 26.7727 14.5729 26.7727H15.0729V26.2727V22.5636V22.0636H14.5729C13.7218 22.0636 12.9056 21.7255 12.3038 21.1237C11.702 20.5219 11.3639 19.7057 11.3639 18.8546C11.3639 18.0035 11.702 17.1872 12.3038 16.5854C12.9056 15.9836 13.7218 15.6455 14.5729 15.6455H15.0729V15.1455V14.7183H15.9275V15.1455ZM15.0729 17V16.5H14.5729C13.9485 16.5 13.3496 16.7481 12.908 17.1897C12.4665 17.6312 12.2184 18.2301 12.2184 18.8546C12.2184 19.479 12.4665 20.0779 12.908 20.5195C13.3496 20.961 13.9485 21.2091 14.5729 21.2091H15.0729V20.7091V17ZM15.9275 26.2727V26.7727H16.4275C17.0519 26.7727 17.6508 26.5246 18.0924 26.083C18.5339 25.6415 18.782 25.0426 18.782 24.4181C18.782 23.7937 18.5339 23.1948 18.0924 22.7532C17.6508 22.3117 17.0519 22.0636 16.4275 22.0636H15.9275V22.5636V26.2727Z" fill="#FAFAFA" stroke="#FAFAFA"/>
<path d="M8.20572 9.57757L8.5219 9.69971C12.8707 11.3796 18.1083 11.3796 22.457 9.69792L22.7695 9.57708L23.0001 9.82015C24.8981 11.8209 26.4858 14.0947 27.7105 16.5657L27.7115 16.5676C28.9873 19.1702 29.7037 21.8132 29.5867 24.1299L29.5867 24.13C29.4723 26.3911 28.5716 28.3571 26.5218 29.8058L26.5218 29.8059C24.4129 31.2959 20.9467 32.3334 15.5354 32.3334C10.1198 32.3334 6.63966 31.314 4.51316 29.842L4.51293 29.8419C2.44943 28.4118 1.53763 26.4719 1.41014 24.2372L8.20572 9.57757ZM8.20572 9.57757L7.97519 9.82605M8.20572 9.57757L7.97519 9.82605M7.97519 9.82605C6.15729 11.7855 4.46566 14.1896 3.25095 16.6927L3.25091 16.6928M7.97519 9.82605L3.25091 16.6928M3.25091 16.6928C1.98037 19.3122 1.2784 21.9431 1.41013 24.237L3.25091 16.6928ZM25.3428 3.18124C25.7832 3.39909 26.1642 3.60746 26.4775 3.79415L23.3457 8.37238L23.1141 8.71101L23.401 9.00431C25.3394 10.986 27.1697 13.5162 28.4805 16.1918C29.7935 18.872 30.5679 21.6623 30.441 24.1734C30.3151 26.6636 29.3054 28.8861 27.0163 30.5034C24.7051 32.1362 21.0382 33.188 15.5364 33.188C10.0332 33.188 6.35436 32.155 4.02802 30.544C1.72448 28.9488 0.699103 26.7542 0.558033 24.2855C0.415712 21.795 1.17576 19.0151 2.48354 16.32C3.7889 13.6298 5.62285 11.0597 7.58124 8.99914L7.85891 8.70699L7.63235 8.37363L4.52247 3.79779C4.67984 3.70509 4.8536 3.60734 5.04301 3.50644L5.04302 3.50644L5.04474 3.50552C5.23531 3.40304 5.44085 3.29755 5.66136 3.19001L5.85727 3.09446C8.10344 2.02389 11.6645 0.809326 15.5364 0.809326C19.4384 0.809326 22.9975 2.04271 25.2165 3.11992C25.2165 3.11993 25.2165 3.11993 25.2165 3.11993L25.3412 3.18044C25.3417 3.18071 25.3422 3.18097 25.3428 3.18124ZM21.7245 9.05904L21.8779 9.00454L21.9698 8.87021L24.7117 4.86165L25.2968 4.00623L24.2631 4.08066C21.6696 4.26739 18.6003 4.87467 15.6554 5.72728C13.6714 6.30043 11.4387 6.21917 9.33386 5.83094C8.80462 5.73281 8.27901 5.61601 7.75803 5.48074L6.47261 5.147L7.21875 6.24561L8.99909 8.86698L9.09097 9.00226L9.24502 9.0571C13.1692 10.4542 17.7996 10.4541 21.7245 9.05904ZM7.08002 3.48023L5.80043 4.02334L7.1328 4.41973C7.88966 4.64489 8.68211 4.8412 9.48767 4.99034L9.48813 4.99042C11.523 5.36523 13.6079 5.42967 15.4168 4.9057L15.4175 4.90549C17.3859 4.33204 19.388 3.88104 21.4122 3.55508L21.4768 2.58267C19.7353 2.05833 17.6905 1.66385 15.5354 1.66385C12.2536 1.66385 9.20629 2.57774 7.08002 3.48023Z" fill="#FAFAFA" stroke="#FAFAFA"/>
</svg>
